HIERARCHY
ROOT Hips
{
  OFFSET -187.679 86.5976 -156.378
  CHANNELS 6 Xposition Yposition Zposition Zrotation Xrotation Yrotation
  JOINT LeftUpLeg
  {
    OFFSET 8.64259 1.95398 -2.38835
    CHANNELS 3 Zrotation Xrotation Yrotation
    JOINT LeftLeg
    {
      OFFSET 43.7702 0 0
      CHANNELS 3 Zrotation Xrotation Yrotation
      JOINT LeftFoot
      {
        OFFSET 40.6238 0 0
        CHANNELS 3 Zrotation Xrotation Yrotation
        JOINT LeftToeBase
        {
          OFFSET 12.7242 0 0
          CHANNELS 3 Zrotation Xrotation Yrotation
          End Site
          {
            OFFSET 0 0 0
          }
        }
      }
    }
  }
  JOINT RightUpLeg
  {
    OFFSET -8.2249 1.95398 -2.59336
    CHANNELS 3 Zrotation Xrotation Yrotation
    JOINT RightLeg
    {
      OFFSET 43.5653 0 0
      CHANNELS 3 Zrotation Xrotation Yrotation
      JOINT RightFoot
      {
        OFFSET 40.6238 0 0
        CHANNELS 3 Zrotation Xrotation Yrotation
        JOINT RightToeBase
        {
          OFFSET 12.7242 0 0
          CHANNELS 3 Zrotation Xrotation Yrotation
          End Site
          {
            OFFSET 0 0 0
          }
        }
      }
    }
  }
  JOINT Spine
  {
    OFFSET 0.165834 0.87714 6.61349
    CHANNELS 3 Zrotation Xrotation Yrotation
    JOINT Spine1
    {
      OFFSET 7.38963 1.71661e-005 0
      CHANNELS 3 Zrotation Xrotation Yrotation
      JOINT Spine2
      {
        OFFSET 11.9445 1.14441e-005 0
        CHANNELS 3 Zrotation Xrotation Yrotation
        JOINT Spine3
        {
          OFFSET 14.7254 4.19617e-005 0
          CHANNELS 3 Zrotation Xrotation Yrotation
          JOINT Spine4
          {
            OFFSET 10.9679 0 0
            CHANNELS 3 Zrotation Xrotation Yrotation
            JOINT RightShoulder
            {
              OFFSET 2.46616 -1.6653 3.69651
              CHANNELS 3 Zrotation Xrotation Yrotation
              JOINT RightArm
              {
                OFFSET 13.0012 0 0
                CHANNELS 3 Zrotation Xrotation Yrotation
                JOINT RightForeArm
                {
                  OFFSET 28.7848 1.52588e-005 0
                  CHANNELS 3 Zrotation Xrotation Yrotation
                  JOINT RightHand
                  {
                    OFFSET 26.5688 1.52588e-005 0
                    CHANNELS 3 Zrotation Xrotation Yrotation
                    End Site
                    {
                      OFFSET 0 0 0
                    }
                  }
                }
              }
            }
            JOINT LeftShoulder
            {
              OFFSET 2.38034 -1.29275 -3.7523
              CHANNELS 3 Zrotation Xrotation Yrotation
              JOINT LeftArm
              {
                OFFSET 16.3182 6.10352e-005 0
                CHANNELS 3 Zrotation Xrotation Yrotation
                JOINT LeftForeArm
                {
                  OFFSET 27.0901 0 0
                  CHANNELS 3 Zrotation Xrotation Yrotation
                  JOINT LeftHand
                  {
                    OFFSET 24.5451 1.52588e-005 0
                    CHANNELS 3 Zrotation Xrotation Yrotation
                    End Site
                    {
                      OFFSET 0 0 0
                    }
                  }
                }
              }
            }
            JOINT Neck
            {
              OFFSET 5.0226 -0.0266342 0
              CHANNELS 3 Zrotation Xrotation Yrotation
              JOINT Head
              {
                OFFSET 6.69363 2.86102e-005 0
                CHANNELS 3 Zrotation Xrotation Yrotation
                End Site
                {
                  OFFSET 0 0 0
                }
              }
            }
          }
        }
      }
    }
  }
}
MOTION
Frames:	15
Frame Time:	0.0416667
39.7265 102.135 -339.017 -158.223 -83.4303 -159.012 -171.222 6.82395 87.9415 0.701967 60.7243 -0.806037 45.7276 -1.15748 21.7844 -172.616 61.5479 -9.37197 174.141 3.07483 88.7006 -27.6641 5.47349 1.24123 65.6147 0.177435 3.9841 31.421 -0.658845 4.05496 0.959515 7.28547 -89.5613 12.2982 2.11501 0.637343 0.628902 2.14101 0.543594 -21.9159 1.82567 1.24369 -1.90326 1.82568 1.24368 102.296 -46.1784 -81.637 37.3027 -29.194 -16.2309 -18.1622 -29.7652 -20.3788 -12.1279 -0.254619 -2.64418 -91.0245 -43.8069 75.8942 -26.512 33.1562 -6.68837 8.2715 -4.23109 -15.6223 -4.67302 -0.117051 -2.67825 4.84179 -1.81958 -5.73961 6.19902 -0.625756 1.47748 
39.7842 102.182 -338.98 -155.661 -83.401 -156.5 -171.798 6.30787 87.6415 -0.911159 59.5962 1.04446 45.9743 -1.31947 21.3602 -175.7 65.9855 -4.07501 174.102 2.39938 88.4555 -26.1422 5.3043 1.25647 66.3704 -0.38077 3.46583 30.2533 -1.04144 4.59939 0.981145 7.26179 -89.57 12.3459 2.1539 0.614386 0.676634 2.17886 0.518946 -21.8688 1.86966 1.2335 -1.85613 1.86966 1.23349 97.5369 -49.3984 -89.074 34.9744 -25.9282 -12.5356 -20.2546 -27.7961 -22.403 -11.0142 -0.234515 -2.62191 -91.3631 -44.0824 75.4294 -26.671 33.1048 -6.24741 8.22387 -4.31381 -15.5198 -3.92967 -0.0981849 -3.34218 4.06465 -2.02928 -5.61363 6.38185 -0.903952 1.29447 
39.7245 102.255 -338.933 -154.352 -83.22 -155.143 -172.314 4.62678 87.6904 -2.57943 58.1593 3.04542 46.1814 -1.82917 20.3127 164.493 75.4451 20.4666 173.914 -0.0398576 88.7715 -21.7756 4.18133 1.4674 69.5721 -2.36447 1.22109 25.0638 -2.21276 5.07329 1.00444 7.29457 -89.5861 12.2806 2.19252 0.579698 0.611442 2.21592 0.482595 -21.9347 1.91691 1.21204 -1.92202 1.91692 1.21204 97.2042 -49.7033 -89.5556 34.6428 -25.3908 -12.1158 -20.6657 -27.6384 -22.8943 -10.9523 -0.244044 -2.50379 -91.416 -44.022 75.3291 -26.7501 33.4739 -6.47519 7.88735 -5.13237 -15.1082 -4.17286 -0.0816373 -4.43579 5.13058 -2.3555 -5.05837 4.653 -1.33878 0.630036 
39.5974 102.786 -338.823 -152.956 -83.1695 -153.541 -172.859 2.4264 87.8647 -4.66039 55.9148 5.2707 46.6178 -2.47122 18.6493 77.5055 69.1839 114.291 174.006 -1.6092 88.8931 -18.486 4.16157 1.49295 67.6032 -2.3521 1.25955 25.1256 -2.14342 4.88581 1.00379 7.28526 -89.6283 12.3002 2.17121 0.49718 0.631031 2.191 0.401092 -21.9153 1.92139 1.12693 -1.90271 1.92139 1.12694 97.0746 -49.6258 -89.7652 34.4877 -25.5451 -12.0481 -20.1285 -27.013 -22.3089 -10.6703 -0.220354 -2.70515 -91.5756 -44.2072 75.1263 -26.8798 33.9019 -6.06497 7.6883 -5.70545 -15.4298 -4.54148 -0.0839185 -4.44099 5.22386 -2.75674 -4.85157 3.72967 -1.77789 0.486677 
39.4277 103.212 -338.585 -151.228 -83.0811 -151.78 -173.628 0.509358 87.7481 -8.30545 52.0222 7.64955 47.8038 -2.62872 16.5455 63.6385 40.3738 129.225 173.922 -3.09332 88.9709 -15.7071 4.17033 1.61483 66.206 -2.51695 1.45617 25.0265 -2.17498 4.92052 0.99242 7.30518 -89.6493 12.2608 2.13867 0.460084 0.591531 2.15684 0.365466 -21.9547 1.90149 1.08176 -1.94206 1.90149 1.08177 96.6942 -49.8782 -90.3287 33.9637 -25.6135 -12.1001 -20.1254 -27.2207 -22.284 -10.894 -0.320148 -1.64246 -91.4998 -44.4481 75.3114 -26.6514 33.1566 -6.32733 7.99554 -4.58461 -15.0918 -2.68733 -0.0911271 -2.59592 5.96561 -3.20556 -4.7089 2.5715 -2.208 0.717889 
39.0672 103.414 -338.355 -149.752 -83.3715 -150.124 -173.635 -1.03609 88.3211 -10.1856 47.4577 7.92711 49.1071 -2.86377 13.4591 61.7693 19.1242 109.644 174.281 -4.01746 89.5084 -13.4553 4.27627 1.56715 65.2967 -2.6392 1.16644 24.9659 -2.12138 4.71834 0.975666 7.26926 -89.6789 12.3332 2.09133 0.40438 0.663925 2.10711 0.311903 -21.8821 1.87308 1.01441 -1.86944 1.87309 1.01441 96.3486 -50.0926 -90.8393 33.4948 -25.8617 -11.8998 -20.3714 -27.1693 -22.7455 -10.7523 -0.295846 -1.86753 -91.7344 -44.4969 74.9543 -26.4187 33.2367 -6.12522 7.89193 -5.08417 -15.103 -2.94383 -0.0910497 -2.74826 6.22952 -3.54937 -4.64184 1.82842 -2.55116 0.725735 
38.4879 103.335 -337.939 -149.692 -83.4342 -150.293 -174.012 -2.92159 88.566 -12.0917 39.5588 8.25761 51.1208 -2.78943 8.53821 56.7015 11.7346 78.6709 174.298 -3.92468 89.6031 -14.2224 4.27634 1.59303 65.9208 -2.72877 0.941355 25.1615 -2.08694 4.73412 0.924082 7.28489 -89.6912 12.3023 1.98298 0.392834 0.632778 1.99836 0.305144 -21.9121 1.77322 0.970811 -1.89944 1.77322 0.97081 95.8754 -49.6024 -91.6332 33.6083 -25.2945 -11.3958 -20.8034 -26.9745 -23.3596 -10.6192 -0.293205 -1.84934 -91.5524 -44.7223 75.3019 -26.399 32.9844 -6.28334 7.97111 -5.08977 -15.2925 -3.31996 -0.0886208 -3.20585 6.65135 -3.47484 -3.63832 0.934293 -2.68376 0.107582 
37.7896 103.277 -337.468 -151.205 -83.7197 -151.862 -174.28 -3.97034 88.9848 -13.288 28.0078 7.92986 53.3915 -2.58383 0.999498 50.2928 2.20598 42.0359 174.236 -4.08294 89.8637 -14.4541 4.45213 1.9128 66.6133 -2.95329 0.943167 24.5125 -2.18814 4.64289 0.868894 7.28801 -89.6999 12.2959 1.86917 0.388566 0.626217 1.88447 0.305901 -21.9175 1.66596 0.932509 -1.90482 1.66596 0.932507 94.7372 -49.6743 -93.3878 32.9112 -24.7598 -10.82 -20.6173 -25.8131 -23.2198 -10.7628 -0.237379 -2.53663 -91.4999 -44.5056 75.3267 -26.7266 32.4689 -6.3 8.09107 -4.8443 -15.1735 -3.78732 -0.0864918 -3.44749 6.59576 -3.45138 -3.7784 0.611484 -2.62423 0.537476 
36.701 103.038 -336.822 -154.755 -83.8477 -155.294 -173.752 -5.09584 90.4706 -13.2263 14.8597 6.90216 54.7913 -2.83046 -8.66515 49.2519 5.00188 21.2877 174.687 -4.34871 90.749 -15.2752 5.4082 1.97394 67.6746 -3.10525 0.834217 24.436 -2.26453 4.82549 0.809513 7.31736 -89.75 12.2379 1.72743 0.305728 0.56811 1.73921 0.229375 -21.9746 1.55567 0.810874 -1.96194 1.55567 0.810872 94.0376 -49.3161 -94.5305 32.2431 -25.391 -10.9653 -19.5031 -25.216 -21.7203 -10.6232 -0.226367 -2.62439 -91.3852 -45.0022 75.6395 -26.3906 31.7786 -6.28481 8.05571 -5.63843 -15.1524 -3.61517 -0.0872048 -4.14604 5.93471 -3.29194 -3.5868 0.695925 -2.51164 1.0657 
35.5526 102.761 -335.996 -163.969 -84.0106 -165.216 -173.765 -6.50773 91.0045 -12.1654 4.69685 6.59817 54.3394 -3.22311 -16.8497 48.9543 6.35051 9.01758 174.203 -4.29825 90.4843 -17.274 5.90153 2.45358 69.2779 -3.13188 0.90569 24.2887 -2.28756 4.80425 0.674077 7.36327 -89.6914 12.145 1.48592 0.451225 0.47482 1.50435 0.38537 -22.0651 1.28161 0.877004 -2.05244 1.28161 0.876995 91.7674 -49.6479 -97.9834 31.3864 -24.8099 -10.0679 -19.3656 -25.0339 -21.418 -10.3143 -0.205221 -2.79604 -90.8855 -45.3122 76.5037 -26.5772 30.2734 -5.84087 8.34606 -5.38817 -15.6436 -3.98289 -0.0874709 -3.82696 4.56059 -2.66845 -3.3496 1.58011 -1.96389 1.50272 
34.1201 102.417 -335.037 -167.713 -83.9839 -169.439 -173.279 -6.19719 91.8151 -13.8687 4.11241 5.83349 55.2322 -2.70926 -18.2017 49.4995 6.68751 8.10259 174.008 -4.76257 90.6103 -18.2493 6.24169 2.80303 70.8804 -3.42253 1.10988 24.0152 -2.45676 5.13965 0.629549 7.41517 -89.648 12.0406 1.41785 0.547552 0.370331 1.44057 0.484605 -22.1686 1.18773 0.948393 -2.15596 1.18774 0.948395 90.0511 -49.803 -100.587 30.1974 -25.2599 -10.3847 -18.5896 -24.4996 -20.3703 -11.0833 -0.244659 -2.53733 -90.632 -45.5402 76.9579 -27.2517 28.0987 -4.77615 7.70909 -8.85417 -16.2575 -6.46587 -0.0658255 -4.88032 3.43899 -1.98864 -2.94604 2.30096 -1.37552 1.80348 
32.7232 101.689 -334.389 -178.791 -84.2749 179.322 -172.992 -0.842094 93.8289 -22.8023 14.9871 4.73202 58.8286 -0.544069 -11.1428 51.3355 6.30846 20.1896 173.7 -3.9497 91.0722 -21.0662 6.96634 3.63059 73.1401 -3.41171 1.05447 23.7373 -2.71316 5.72385 0.464707 7.50908 -89.6677 11.8533 1.08049 0.546799 0.182699 1.10351 0.498709 -22.354 0.86621 0.846258 -2.34135 0.866207 0.846256 88.0094 -49.0535 -103.911 29.3161 -25.6261 -10.9297 -18.4248 -23.4502 -20.358 -10.7192 -0.261879 -2.2406 -89.4375 -45.6513 78.8556 -27.7808 23.9241 -4.34333 8.55948 -7.68408 -16.7698 -5.18808 -0.0951179 -3.73915 3.17971 -0.99995 -0.87969 3.21519 -0.788345 0.94466 
31.7663 100.73 -333.801 163.222 -83.9903 161.236 -173.67 5.9601 93.355 -33.9252 31.7045 5.94972 61.1699 1.66629 1.34941 54.8788 6.99266 39.4734 173.083 -3.22267 91.214 -24.2269 8.60148 4.7467 76.0505 -3.31372 1.92237 23.9778 -2.68165 5.78319 0.357819 7.61737 -89.7017 11.6371 0.851616 0.505973 -0.033613 0.873057 0.467997 -22.5695 0.660181 0.738525 -2.55681 0.660182 0.738532 85.9026 -48.9827 -107.157 26.9781 -28.1448 -11.6393 -16.6928 -21.6898 -18.4822 -9.74442 -0.131266 -3.59494 -88.6474 -46.4797 80.2689 -27.4486 20.2524 -2.65946 9.0372 -8.3533 -19.4245 -2.54553 -0.0877628 -3.51305 3.11624 -0.412709 0.359974 4.82603 -0.428908 0.545795 
31.273 100.619 -332.486 153.828 -84.2448 150.624 -174.991 11.7874 91.0174 -37.1546 35.3556 5.82261 62.4993 2.91425 6.18885 51.1738 4.40072 39.1481 173.054 -3.26269 90.7317 -24.6978 9.84446 4.3785 76.889 -3.12014 2.43151 23.8459 -2.51091 5.19639 0.618018 7.71143 -89.5925 11.4473 1.42003 0.667501 -0.223031 1.44802 0.604344 -22.7613 1.15377 1.06344 -2.74865 1.15376 1.06344 85.0254 -49.6338 -108.283 25.837 -27.3957 -11.5672 -16.0126 -21.5515 -17.1684 -9.59104 -0.10089 -3.96649 -88.2964 -46.0975 80.7378 -27.6706 19.7635 -2.38977 9.29385 -7.5299 -18.9977 -3.2897 -0.0953627 -3.07809 3.99879 -1.16732 -0.34546 4.7632 -1.0516 0.518881 
31.2724 101.163 -330.455 143.989 -84.8346 138.929 -177.118 16.4022 87.1798 -31.1766 21.8894 4.18488 65.6498 3.4514 -0.458903 28.517 -4.58975 13.7367 172.715 -5.31096 89.2716 -20.566 10.4806 3.74716 75.943 -3.67172 2.43733 24.2613 -2.29225 4.7972 0.769332 7.73521 -89.4316 11.3959 1.79608 0.951356 -0.274114 1.83621 0.871369 -22.8134 1.42714 1.44721 -2.80074 1.42714 1.4472 85.2836 -48.9259 -108.119 26.3346 -27.7966 -12.2778 -16.1384 -20.9129 -17.5385 -9.84679 -0.118302 -3.77862 -88.3317 -46.2025 80.7041 -28.2149 18.6403 0.341787 9.29964 -7.46313 -19.1696 -3.20332 -0.100716 -2.3183 4.86008 -1.06686 0.911904 5.43968 -1.24785 -0.51633 
